<?xml version="1.0" encoding="utf-8"?>
<!-- Generator: Adobe Illustrator 16.0.0, SVG Export Plug-In . SVG Version: 6.00 Build 0)  -->
<!DOCTYPE svg PUBLIC "-//W3C//DTD SVG 1.1//EN" "http://www.w3.org/Graphics/SVG/1.1/DTD/svg11.dtd">
<svg version="1.1" id="Layer_1" xmlns="http://www.w3.org/2000/svg" xmlns:xlink="http://www.w3.org/1999/xlink" x="0px" y="0px"
	 width="225px" height="189px" viewBox="0 0 225 189" enable-background="new 0 0 225 189" xml:space="preserve">
<g>
	<rect y="-0.3" fill="none" width="225" height="189"/>
	<g>
		<rect y="-0.3" fill="none" width="225" height="189"/>
		<g>
			<path fill="#4A4A4A" d="M108.5,106.3c-3,0-5.5-2.3-5.5-5.4c0-3.1,2.5-5.4,5.5-5.4c3,0,5.5,2.3,5.5,5.4
				C114,104,111.5,106.3,108.5,106.3 M108.5,90.9c-2.9,0-5.7,1-7.7,2.9c-2.1,1.9-3.2,4.4-3.2,7.1c0,0.1,0,0.2,0,0.3v17.9h5.3v-9.6
				c1.7,0.9,3.6,1.4,5.6,1.4c2.9,0,5.7-1,7.7-2.9c2.1-1.9,3.2-4.4,3.2-7.1s-1.1-5.2-3.2-7.1C114.2,91.9,111.5,90.9,108.5,90.9
				 M142.4,106.3c-3,0-5.5-2.3-5.5-5.4c0-3.1,2.5-5.4,5.5-5.4c3,0,5.5,2.3,5.5,5.4C147.9,104,145.4,106.3,142.4,106.3 M153.4,100.9
				c0-2.7-1.1-5.2-3.2-7.1c-2-1.9-4.8-2.9-7.7-2.9c-2.9,0-5.7,1-7.7,2.9c-2.1,1.9-3.2,4.4-3.2,7.1s1.1,5.2,3.2,7.1
				c2.1,1.9,4.8,2.9,7.7,2.9c2,0,4-0.5,5.7-1.4v1.1h5.3L153.4,100.9L153.4,100.9L153.4,100.9z M174.8,94.3c-1.9-2.1-4.7-3.4-7.7-3.4
				c-5.6,0-9.6,3.4-9.6,9.5v10.1h5.3V99.7c0-2.5,1.8-4.2,4.4-4.2c2.5,0,4.3,1.6,4.3,4.2v10.9h5.3v-10.1
				C176.6,98,176.4,96.1,174.8,94.3 M122.8,110.6h5.3V82.8h-5.3V110.6z"/>
			<path fill="#EBEBEB" d="M59.3,106.3c-3,0-5.5-2.3-5.5-5.4c0-3.1,2.5-5.4,5.5-5.4s5.5,2.3,5.5,5.4C64.8,104,62.3,106.3,59.3,106.3
				 M59.3,90.9c-2,0-3.9,0.5-5.6,1.4v-9.5h-5.3V101h0c0,2.7,1.1,5.1,3.2,7.1c2.1,1.9,4.8,2.9,7.7,2.9c2.9,0,5.7-1,7.8-2.9
				c2.1-1.9,3.2-4.4,3.2-7.1s-1.1-5.2-3.2-7.1C65,91.9,62.2,90.9,59.3,90.9 M83.4,106.3c-3,0-5.5-2.3-5.5-5.4c0-3.1,2.5-5.4,5.5-5.4
				c3,0,5.5,2.3,5.5,5.4C88.9,104,86.4,106.3,83.4,106.3 M91.2,93.8c-2-1.9-4.8-2.9-7.7-2.9c-2.9,0-5.7,1-7.7,2.9
				c-2.1,1.9-3.2,4.4-3.2,7.1s1.1,5.2,3.2,7.1c2.1,1.9,4.8,2.9,7.7,2.9c2.9,0,5.7-1,7.7-2.9c2.1-1.9,3.2-4.4,3.2-7.1
				S93.3,95.7,91.2,93.8"/>
			<path fill="#EA1D24" d="M176.2,43c0,21.6-41.9,29.5-77.2,29.5c-22.5,0-38.8-2.9-49.8-8.2c11.6,2.4,25.4,3.7,40.6,3.7
				c30.4,0,55.1-11.3,55.1-25L176.2,43z"/>
		</g>
	</g>
</g>
</svg>
